<svg id="Layer_1" data-name="Layer 1" xmlns="http://www.w3.org/2000/svg" xmlns:xlink="http://www.w3.org/1999/xlink" viewBox="0 0 512 512"><defs><style>.cls-1{fill:url(#New_Gradient_Swatch);}.cls-2{fill:url(#New_Gradient_Swatch-2);}.cls-3{fill:url(#New_Gradient_Swatch-3);}.cls-4{fill:url(#New_Gradient_Swatch-4);}.cls-5{fill:url(#New_Gradient_Swatch-5);}</style><linearGradient id="New_Gradient_Swatch" x1="327.87" y1="83.75" x2="456.92" y2="83.75" gradientUnits="userSpaceOnUse"><stop offset="0" stop-color="#8be14a"/><stop offset="1" stop-color="#a9ff5c"/></linearGradient><linearGradient id="New_Gradient_Swatch-2" x1="40.38" y1="256" x2="471.62" y2="256" xlink:href="#New_Gradient_Swatch"/><linearGradient id="New_Gradient_Swatch-3" x1="183.77" y1="309.91" x2="219.7" y2="309.91" xlink:href="#New_Gradient_Swatch"/><linearGradient id="New_Gradient_Swatch-4" x1="238.39" y1="309.91" x2="274.33" y2="309.91" xlink:href="#New_Gradient_Swatch"/><linearGradient id="New_Gradient_Swatch-5" x1="293.02" y1="309.91" x2="328.95" y2="309.91" xlink:href="#New_Gradient_Swatch"/></defs><g id="Layer_2" data-name="Layer 2"><path class="cls-1" d="M429.67,148.19h16.26a10.78,10.78,0,0,0,7.72-18.51l-107-106.82a10.78,10.78,0,0,0-18.78,7.64V46.76A101.44,101.44,0,0,0,429.31,148.19Z"/><path class="cls-2" d="M429.67,184.13a137.38,137.38,0,0,1-137.73-137v-.36A42.33,42.33,0,0,0,250,4.44H142.17A101.43,101.43,0,0,0,40.38,105.51V406.13A101.43,101.43,0,0,0,141.81,507.56H370.55A101.43,101.43,0,0,0,471.62,406.13V226.44A42.3,42.3,0,0,0,429.67,184.13ZM256,417.18A133.59,133.59,0,0,1,202.09,406a14.88,14.88,0,0,0-10-.81l-35.94,9.79a4.83,4.83,0,0,1-5.92-3.45,4.74,4.74,0,0,1,0-2.48l7.18-26.14a14.38,14.38,0,0,0-2.6-12.76,110.4,110.4,0,0,1-24.62-69.18c0-64.33,56.33-116.79,125.78-116.79s125.78,52.19,125.78,116.79S325.45,417.18,256,417.18Z"/><circle class="cls-3" cx="201.74" cy="309.91" r="17.97"/><circle class="cls-4" cx="256.36" cy="309.91" r="17.97"/><circle class="cls-5" cx="310.98" cy="309.91" r="17.97"/></g></svg>